<mxfile host="app.diagrams.net" modified="2022-01-11T12:05:24.795Z" agent="5.0 (Windows NT 10.0; Win64; x64) AppleWebKit/537.36 (KHTML, like Gecko) Chrome/97.0.4692.71 Safari/537.36" etag="AdBWpMLZfZ5u_iGZgnEx" version="16.2.4" type="github">
  <diagram id="0RPtHGjd553X_wkCXClZ" name="Page-1">
    <mxGraphModel dx="1422" dy="718" grid="1" gridSize="10" guides="1" tooltips="1" connect="1" arrows="1" fold="1" page="1" pageScale="1" pageWidth="827" pageHeight="1169" math="0" shadow="0">
      <root>
        <mxCell id="0" />
        <mxCell id="1" parent="0" />
        <mxCell id="i7RVVCRtl54UYzsd9FJO-4" value="客户端" style="ellipse;whiteSpace=wrap;html=1;aspect=fixed;" parent="1" vertex="1">
          <mxGeometry x="100" y="320" width="80" height="80" as="geometry" />
        </mxCell>
        <mxCell id="i7RVVCRtl54UYzsd9FJO-5" value="接入网关&lt;br&gt;8443" style="ellipse;whiteSpace=wrap;html=1;aspect=fixed;" parent="1" vertex="1">
          <mxGeometry x="350" y="320" width="80" height="80" as="geometry" />
        </mxCell>
        <mxCell id="i7RVVCRtl54UYzsd9FJO-6" value="安枢" style="ellipse;whiteSpace=wrap;html=1;aspect=fixed;" parent="1" vertex="1">
          <mxGeometry x="670" y="210" width="80" height="80" as="geometry" />
        </mxCell>
        <mxCell id="i7RVVCRtl54UYzsd9FJO-7" value="应用网关&lt;br&gt;10443" style="ellipse;whiteSpace=wrap;html=1;aspect=fixed;" parent="1" vertex="1">
          <mxGeometry x="670" y="450" width="80" height="80" as="geometry" />
        </mxCell>
        <mxCell id="kzzfzWq4Dvvr25G4k-uK-1" value="" style="endArrow=classic;html=1;rounded=0;entryX=0;entryY=0;entryDx=0;entryDy=0;exitX=1;exitY=0;exitDx=0;exitDy=0;fontColor=#000000;strokeColor=#CC0000;" edge="1" parent="1" source="i7RVVCRtl54UYzsd9FJO-4" target="i7RVVCRtl54UYzsd9FJO-5">
          <mxGeometry width="50" height="50" relative="1" as="geometry">
            <mxPoint x="190" y="342" as="sourcePoint" />
            <mxPoint x="280" y="290" as="targetPoint" />
          </mxGeometry>
        </mxCell>
        <mxCell id="kzzfzWq4Dvvr25G4k-uK-2" value="20203" style="edgeLabel;html=1;align=center;verticalAlign=middle;resizable=0;points=[];" vertex="1" connectable="0" parent="kzzfzWq4Dvvr25G4k-uK-1">
          <mxGeometry x="-0.2793" relative="1" as="geometry">
            <mxPoint x="-38" as="offset" />
          </mxGeometry>
        </mxCell>
        <mxCell id="kzzfzWq4Dvvr25G4k-uK-25" value="管理面虚IP" style="edgeLabel;html=1;align=center;verticalAlign=middle;resizable=0;points=[];fontColor=#000000;" vertex="1" connectable="0" parent="kzzfzWq4Dvvr25G4k-uK-1">
          <mxGeometry x="0.3722" y="1" relative="1" as="geometry">
            <mxPoint x="9" as="offset" />
          </mxGeometry>
        </mxCell>
        <mxCell id="kzzfzWq4Dvvr25G4k-uK-6" value="" style="endArrow=classic;html=1;rounded=0;exitX=1;exitY=0.5;exitDx=0;exitDy=0;entryX=0;entryY=0.5;entryDx=0;entryDy=0;strokeColor=#3333FF;" edge="1" parent="1" source="i7RVVCRtl54UYzsd9FJO-4" target="i7RVVCRtl54UYzsd9FJO-5">
          <mxGeometry width="50" height="50" relative="1" as="geometry">
            <mxPoint x="178.28427124746213" y="341.71572875253787" as="sourcePoint" />
            <mxPoint x="360" y="352" as="targetPoint" />
          </mxGeometry>
        </mxCell>
        <mxCell id="kzzfzWq4Dvvr25G4k-uK-7" value="443" style="edgeLabel;html=1;align=center;verticalAlign=middle;resizable=0;points=[];" vertex="1" connectable="0" parent="kzzfzWq4Dvvr25G4k-uK-6">
          <mxGeometry x="-0.2793" relative="1" as="geometry">
            <mxPoint x="-41" as="offset" />
          </mxGeometry>
        </mxCell>
        <mxCell id="kzzfzWq4Dvvr25G4k-uK-26" value="管理面虚IP" style="edgeLabel;html=1;align=center;verticalAlign=middle;resizable=0;points=[];fontColor=#000000;" vertex="1" connectable="0" parent="kzzfzWq4Dvvr25G4k-uK-6">
          <mxGeometry x="0.5882" y="1" relative="1" as="geometry">
            <mxPoint x="-5" as="offset" />
          </mxGeometry>
        </mxCell>
        <mxCell id="kzzfzWq4Dvvr25G4k-uK-11" value="" style="endArrow=classic;html=1;rounded=0;exitX=1;exitY=1;exitDx=0;exitDy=0;entryX=0;entryY=1;entryDx=0;entryDy=0;strokeColor=#00FF00;" edge="1" parent="1" source="i7RVVCRtl54UYzsd9FJO-4" target="i7RVVCRtl54UYzsd9FJO-5">
          <mxGeometry width="50" height="50" relative="1" as="geometry">
            <mxPoint x="190" y="370" as="sourcePoint" />
            <mxPoint x="360" y="400" as="targetPoint" />
          </mxGeometry>
        </mxCell>
        <mxCell id="kzzfzWq4Dvvr25G4k-uK-12" value="10443" style="edgeLabel;html=1;align=center;verticalAlign=middle;resizable=0;points=[];" vertex="1" connectable="0" parent="kzzfzWq4Dvvr25G4k-uK-11">
          <mxGeometry x="-0.2793" relative="1" as="geometry">
            <mxPoint x="-38" as="offset" />
          </mxGeometry>
        </mxCell>
        <mxCell id="kzzfzWq4Dvvr25G4k-uK-27" value="数据面虚IP" style="edgeLabel;html=1;align=center;verticalAlign=middle;resizable=0;points=[];fontColor=#000000;" vertex="1" connectable="0" parent="kzzfzWq4Dvvr25G4k-uK-11">
          <mxGeometry x="0.6411" relative="1" as="geometry">
            <mxPoint x="-17" as="offset" />
          </mxGeometry>
        </mxCell>
        <mxCell id="kzzfzWq4Dvvr25G4k-uK-13" value="" style="endArrow=classic;html=1;rounded=0;entryX=0;entryY=0;entryDx=0;entryDy=0;exitX=1;exitY=0;exitDx=0;exitDy=0;fontColor=#000000;strokeColor=#CC0000;" edge="1" parent="1" source="i7RVVCRtl54UYzsd9FJO-5" target="i7RVVCRtl54UYzsd9FJO-6">
          <mxGeometry width="50" height="50" relative="1" as="geometry">
            <mxPoint x="178.28427124746213" y="341.71572875253787" as="sourcePoint" />
            <mxPoint x="371.71572875253787" y="341.71572875253787" as="targetPoint" />
          </mxGeometry>
        </mxCell>
        <mxCell id="kzzfzWq4Dvvr25G4k-uK-14" value="20203" style="edgeLabel;html=1;align=center;verticalAlign=middle;resizable=0;points=[];" vertex="1" connectable="0" parent="kzzfzWq4Dvvr25G4k-uK-13">
          <mxGeometry x="-0.2793" relative="1" as="geometry">
            <mxPoint as="offset" />
          </mxGeometry>
        </mxCell>
        <mxCell id="kzzfzWq4Dvvr25G4k-uK-15" value="" style="endArrow=classic;html=1;rounded=0;exitX=0.963;exitY=0.275;exitDx=0;exitDy=0;entryX=0;entryY=0.5;entryDx=0;entryDy=0;strokeColor=#3333FF;exitPerimeter=0;" edge="1" parent="1" source="i7RVVCRtl54UYzsd9FJO-5" target="i7RVVCRtl54UYzsd9FJO-6">
          <mxGeometry width="50" height="50" relative="1" as="geometry">
            <mxPoint x="190" y="370" as="sourcePoint" />
            <mxPoint x="360" y="370" as="targetPoint" />
          </mxGeometry>
        </mxCell>
        <mxCell id="kzzfzWq4Dvvr25G4k-uK-16" value="443" style="edgeLabel;html=1;align=center;verticalAlign=middle;resizable=0;points=[];" vertex="1" connectable="0" parent="kzzfzWq4Dvvr25G4k-uK-15">
          <mxGeometry x="-0.2793" relative="1" as="geometry">
            <mxPoint as="offset" />
          </mxGeometry>
        </mxCell>
        <mxCell id="kzzfzWq4Dvvr25G4k-uK-17" value="" style="endArrow=classic;html=1;rounded=0;exitX=0;exitY=1;exitDx=0;exitDy=0;entryX=1;entryY=0.5;entryDx=0;entryDy=0;" edge="1" parent="1" source="i7RVVCRtl54UYzsd9FJO-6" target="i7RVVCRtl54UYzsd9FJO-5">
          <mxGeometry width="50" height="50" relative="1" as="geometry">
            <mxPoint x="190.00427124746213" y="450.00427124746216" as="sourcePoint" />
            <mxPoint x="383.4357287525379" y="450.00427124746216" as="targetPoint" />
          </mxGeometry>
        </mxCell>
        <mxCell id="kzzfzWq4Dvvr25G4k-uK-18" value="8443" style="edgeLabel;html=1;align=center;verticalAlign=middle;resizable=0;points=[];" vertex="1" connectable="0" parent="kzzfzWq4Dvvr25G4k-uK-17">
          <mxGeometry x="-0.2793" relative="1" as="geometry">
            <mxPoint x="-31" y="12" as="offset" />
          </mxGeometry>
        </mxCell>
        <mxCell id="kzzfzWq4Dvvr25G4k-uK-21" value="" style="endArrow=classic;html=1;rounded=0;exitX=1;exitY=1;exitDx=0;exitDy=0;entryX=0;entryY=0.5;entryDx=0;entryDy=0;strokeColor=#00FF00;" edge="1" parent="1" source="i7RVVCRtl54UYzsd9FJO-5" target="i7RVVCRtl54UYzsd9FJO-7">
          <mxGeometry width="50" height="50" relative="1" as="geometry">
            <mxPoint x="178.28427124746213" y="398.28427124746213" as="sourcePoint" />
            <mxPoint x="371.71572875253787" y="398.28427124746213" as="targetPoint" />
          </mxGeometry>
        </mxCell>
        <mxCell id="kzzfzWq4Dvvr25G4k-uK-22" value="10443" style="edgeLabel;html=1;align=center;verticalAlign=middle;resizable=0;points=[];" vertex="1" connectable="0" parent="kzzfzWq4Dvvr25G4k-uK-21">
          <mxGeometry x="-0.2793" relative="1" as="geometry">
            <mxPoint as="offset" />
          </mxGeometry>
        </mxCell>
        <mxCell id="kzzfzWq4Dvvr25G4k-uK-23" value="" style="endArrow=classic;html=1;rounded=0;exitX=0.5;exitY=1;exitDx=0;exitDy=0;" edge="1" parent="1" source="i7RVVCRtl54UYzsd9FJO-6">
          <mxGeometry width="50" height="50" relative="1" as="geometry">
            <mxPoint x="709.5" y="300" as="sourcePoint" />
            <mxPoint x="710" y="450" as="targetPoint" />
          </mxGeometry>
        </mxCell>
        <mxCell id="kzzfzWq4Dvvr25G4k-uK-24" value="10443" style="edgeLabel;html=1;align=center;verticalAlign=middle;resizable=0;points=[];" vertex="1" connectable="0" parent="kzzfzWq4Dvvr25G4k-uK-23">
          <mxGeometry x="-0.2793" relative="1" as="geometry">
            <mxPoint as="offset" />
          </mxGeometry>
        </mxCell>
      </root>
    </mxGraphModel>
  </diagram>
</mxfile>
